<mxfile host="app.diagrams.net" agent="Mozilla/5.0 (X11; Linux x86_64; rv:131.0) Gecko/20100101 Firefox/131.0" version="27.2.0">
  <diagram name="Page-1" id="zEqlK7t6ldvu853xDJui">
    <mxGraphModel dx="1360" dy="765" grid="1" gridSize="10" guides="1" tooltips="1" connect="1" arrows="1" fold="1" page="1" pageScale="1" pageWidth="850" pageHeight="1100" math="1" shadow="0">
      <root>
        <mxCell id="0" />
        <mxCell id="1" parent="0" />
        <mxCell id="jYTH6Jz3JsOvPJAKBcka-1" value="&lt;div&gt;Robot&lt;/div&gt;" style="rounded=0;whiteSpace=wrap;html=1;" parent="1" vertex="1">
          <mxGeometry x="440" y="20" width="120" height="60" as="geometry" />
        </mxCell>
        <mxCell id="jYTH6Jz3JsOvPJAKBcka-69" style="edgeStyle=orthogonalEdgeStyle;rounded=0;orthogonalLoop=1;jettySize=auto;html=1;exitX=0.5;exitY=1;exitDx=0;exitDy=0;entryX=0.5;entryY=0;entryDx=0;entryDy=0;" parent="1" source="jYTH6Jz3JsOvPJAKBcka-4" target="jYTH6Jz3JsOvPJAKBcka-5" edge="1">
          <mxGeometry relative="1" as="geometry" />
        </mxCell>
        <mxCell id="jYTH6Jz3JsOvPJAKBcka-70" value="$$\tau$$" style="edgeLabel;html=1;align=center;verticalAlign=middle;resizable=0;points=[];" parent="jYTH6Jz3JsOvPJAKBcka-69" vertex="1" connectable="0">
          <mxGeometry x="0.12" y="-4" relative="1" as="geometry">
            <mxPoint as="offset" />
          </mxGeometry>
        </mxCell>
        <mxCell id="jYTH6Jz3JsOvPJAKBcka-4" value="&lt;div&gt;Inverse Dynamics (MR 11.36)&lt;/div&gt;&lt;div&gt;$$\tau = M(\theta)\ddot{\theta} + C(\theta, \dot{\theta})\dot{\theta} + G(\theta, \dot{\theta})\dot{\theta}$$&lt;br&gt;&lt;/div&gt;" style="rounded=0;whiteSpace=wrap;html=1;" parent="1" vertex="1">
          <mxGeometry x="420" y="520" width="220" height="90" as="geometry" />
        </mxCell>
        <mxCell id="jYTH6Jz3JsOvPJAKBcka-73" style="edgeStyle=orthogonalEdgeStyle;rounded=0;orthogonalLoop=1;jettySize=auto;html=1;exitX=0;exitY=0.5;exitDx=0;exitDy=0;entryX=0;entryY=0.5;entryDx=0;entryDy=0;" parent="1" source="jYTH6Jz3JsOvPJAKBcka-5" target="jYTH6Jz3JsOvPJAKBcka-1" edge="1">
          <mxGeometry relative="1" as="geometry">
            <Array as="points">
              <mxPoint x="40" y="690" />
              <mxPoint x="40" y="50" />
            </Array>
          </mxGeometry>
        </mxCell>
        <mxCell id="jYTH6Jz3JsOvPJAKBcka-74" value="$$\tau_{final}$$" style="edgeLabel;html=1;align=center;verticalAlign=middle;resizable=0;points=[];" parent="jYTH6Jz3JsOvPJAKBcka-73" vertex="1" connectable="0">
          <mxGeometry x="-0.744" relative="1" as="geometry">
            <mxPoint as="offset" />
          </mxGeometry>
        </mxCell>
        <mxCell id="jYTH6Jz3JsOvPJAKBcka-5" value="&lt;div&gt;Torque Clamping&lt;/div&gt;$$||\dot\tau|| &amp;lt; a$$" style="rounded=0;whiteSpace=wrap;html=1;" parent="1" vertex="1">
          <mxGeometry x="470" y="660" width="120" height="60" as="geometry" />
        </mxCell>
        <mxCell id="jYTH6Jz3JsOvPJAKBcka-61" style="edgeStyle=orthogonalEdgeStyle;rounded=0;orthogonalLoop=1;jettySize=auto;html=1;exitX=0.5;exitY=1;exitDx=0;exitDy=0;entryX=0.5;entryY=0;entryDx=0;entryDy=0;" parent="1" source="jYTH6Jz3JsOvPJAKBcka-6" target="jYTH6Jz3JsOvPJAKBcka-4" edge="1">
          <mxGeometry relative="1" as="geometry" />
        </mxCell>
        <mxCell id="jYTH6Jz3JsOvPJAKBcka-62" value="$$\ddot{\theta}$$" style="edgeLabel;html=1;align=center;verticalAlign=middle;resizable=0;points=[];" parent="jYTH6Jz3JsOvPJAKBcka-61" vertex="1" connectable="0">
          <mxGeometry x="-0.1556" relative="1" as="geometry">
            <mxPoint as="offset" />
          </mxGeometry>
        </mxCell>
        <mxCell id="jYTH6Jz3JsOvPJAKBcka-6" value="EE Accel to \(\ddot{\theta}\)&lt;br&gt;\(J^{\dagger}_W(\theta) = W^{-1} J(\theta)^T \left( J(\theta) W^{-1} J(\theta)^T \right)^{-1}\)&lt;br&gt;\(\ddot{\theta} =&amp;nbsp;J^{\dagger}_W(\theta) \left( \ddot{q} - \dot{J}(\theta, \dot{\theta}) \dot{\theta} \right)&lt;br&gt;\)" style="rounded=0;whiteSpace=wrap;html=1;" parent="1" vertex="1">
          <mxGeometry x="410" y="395" width="240" height="80" as="geometry" />
        </mxCell>
        <mxCell id="jYTH6Jz3JsOvPJAKBcka-20" style="edgeStyle=orthogonalEdgeStyle;rounded=0;orthogonalLoop=1;jettySize=auto;html=1;exitX=0.75;exitY=1;exitDx=0;exitDy=0;entryX=0.5;entryY=0;entryDx=0;entryDy=0;" parent="1" source="jYTH6Jz3JsOvPJAKBcka-1" target="jYTH6Jz3JsOvPJAKBcka-17" edge="1">
          <mxGeometry relative="1" as="geometry">
            <mxPoint x="520" y="80" as="sourcePoint" />
          </mxGeometry>
        </mxCell>
        <mxCell id="jYTH6Jz3JsOvPJAKBcka-21" value="\(\theta\)" style="edgeLabel;html=1;align=center;verticalAlign=middle;resizable=0;points=[];" parent="jYTH6Jz3JsOvPJAKBcka-20" vertex="1" connectable="0">
          <mxGeometry x="-0.3333" y="2" relative="1" as="geometry">
            <mxPoint as="offset" />
          </mxGeometry>
        </mxCell>
        <mxCell id="jYTH6Jz3JsOvPJAKBcka-54" style="edgeStyle=orthogonalEdgeStyle;rounded=0;orthogonalLoop=1;jettySize=auto;html=1;exitX=0;exitY=1;exitDx=0;exitDy=0;entryX=0;entryY=0.25;entryDx=0;entryDy=0;" parent="1" target="jYTH6Jz3JsOvPJAKBcka-6" edge="1">
          <mxGeometry relative="1" as="geometry">
            <Array as="points">
              <mxPoint x="460" y="100" />
              <mxPoint x="180" y="100" />
              <mxPoint x="180" y="415" />
            </Array>
            <mxPoint x="460" y="80" as="sourcePoint" />
          </mxGeometry>
        </mxCell>
        <mxCell id="jYTH6Jz3JsOvPJAKBcka-56" value="$$\Theta$$" style="edgeLabel;html=1;align=center;verticalAlign=middle;resizable=0;points=[];" parent="jYTH6Jz3JsOvPJAKBcka-54" vertex="1" connectable="0">
          <mxGeometry x="0.0462" relative="1" as="geometry">
            <mxPoint as="offset" />
          </mxGeometry>
        </mxCell>
        <mxCell id="jYTH6Jz3JsOvPJAKBcka-36" style="edgeStyle=orthogonalEdgeStyle;rounded=0;orthogonalLoop=1;jettySize=auto;html=1;exitX=0.5;exitY=1;exitDx=0;exitDy=0;entryX=0.5;entryY=0;entryDx=0;entryDy=0;" parent="1" source="jYTH6Jz3JsOvPJAKBcka-17" target="jYTH6Jz3JsOvPJAKBcka-18" edge="1">
          <mxGeometry relative="1" as="geometry" />
        </mxCell>
        <mxCell id="K6AiGifMPzE6-kjP8r4b-8" value="\(q\)" style="edgeLabel;html=1;align=center;verticalAlign=middle;resizable=0;points=[];" vertex="1" connectable="0" parent="jYTH6Jz3JsOvPJAKBcka-36">
          <mxGeometry x="-0.15" y="2" relative="1" as="geometry">
            <mxPoint as="offset" />
          </mxGeometry>
        </mxCell>
        <mxCell id="jYTH6Jz3JsOvPJAKBcka-17" value="Forward Kinematics&lt;br&gt;$$T(\theta) = e^{[S_1]\theta_1} e^{[S_2]\theta_2} \cdots e^{[S_7]\theta_7} H&lt;br&gt;$$" style="rounded=0;whiteSpace=wrap;html=1;" parent="1" vertex="1">
          <mxGeometry x="420" y="150" width="220" height="70" as="geometry" />
        </mxCell>
        <mxCell id="jYTH6Jz3JsOvPJAKBcka-48" style="edgeStyle=orthogonalEdgeStyle;rounded=0;orthogonalLoop=1;jettySize=auto;html=1;exitX=0.5;exitY=1;exitDx=0;exitDy=0;entryX=0.5;entryY=0;entryDx=0;entryDy=0;" parent="1" source="jYTH6Jz3JsOvPJAKBcka-18" target="jYTH6Jz3JsOvPJAKBcka-6" edge="1">
          <mxGeometry relative="1" as="geometry" />
        </mxCell>
        <mxCell id="jYTH6Jz3JsOvPJAKBcka-51" value="$$\ddot{q}$$" style="edgeLabel;html=1;align=center;verticalAlign=middle;resizable=0;points=[];" parent="jYTH6Jz3JsOvPJAKBcka-48" vertex="1" connectable="0">
          <mxGeometry x="-0.0182" y="3" relative="1" as="geometry">
            <mxPoint as="offset" />
          </mxGeometry>
        </mxCell>
        <mxCell id="jYTH6Jz3JsOvPJAKBcka-18" value="&lt;div&gt;Control (MR 11.66)&lt;br&gt;&lt;/div&gt;&lt;div&gt;$$\ddot{q} = M_{virt}^{-1} \left( F_{\text{ext}} - B \dot{q} - K (q - q_{des} \right)&lt;br&gt;$$&lt;br&gt;&lt;/div&gt;" style="rounded=0;whiteSpace=wrap;html=1;" parent="1" vertex="1">
          <mxGeometry x="410" y="260" width="240" height="80" as="geometry" />
        </mxCell>
        <mxCell id="jYTH6Jz3JsOvPJAKBcka-19" value="&lt;div&gt;EE velocity&lt;/div&gt;&lt;div&gt;$$J(\theta) * \dot\theta$$&lt;br&gt;&lt;/div&gt;" style="rounded=0;whiteSpace=wrap;html=1;" parent="1" vertex="1">
          <mxGeometry x="220" y="260" width="130" height="80" as="geometry" />
        </mxCell>
        <mxCell id="jYTH6Jz3JsOvPJAKBcka-40" value="" style="endArrow=classic;html=1;rounded=0;entryX=1.004;entryY=0.4;entryDx=0;entryDy=0;entryPerimeter=0;" parent="1" target="jYTH6Jz3JsOvPJAKBcka-18" edge="1">
          <mxGeometry width="50" height="50" relative="1" as="geometry">
            <mxPoint x="760" y="292" as="sourcePoint" />
            <mxPoint x="450" y="370" as="targetPoint" />
          </mxGeometry>
        </mxCell>
        <mxCell id="jYTH6Jz3JsOvPJAKBcka-44" value="$$F_{ext}$$" style="edgeLabel;html=1;align=center;verticalAlign=middle;resizable=0;points=[];" parent="jYTH6Jz3JsOvPJAKBcka-40" vertex="1" connectable="0">
          <mxGeometry x="-0.1538" y="-3" relative="1" as="geometry">
            <mxPoint as="offset" />
          </mxGeometry>
        </mxCell>
        <mxCell id="jYTH6Jz3JsOvPJAKBcka-66" style="edgeStyle=orthogonalEdgeStyle;rounded=0;orthogonalLoop=1;jettySize=auto;html=1;exitX=1;exitY=0.5;exitDx=0;exitDy=0;entryX=0;entryY=0.5;entryDx=0;entryDy=0;" parent="1" source="jYTH6Jz3JsOvPJAKBcka-63" target="jYTH6Jz3JsOvPJAKBcka-4" edge="1">
          <mxGeometry relative="1" as="geometry" />
        </mxCell>
        <mxCell id="jYTH6Jz3JsOvPJAKBcka-68" value="$$C(\theta, \dot{\theta})\dot{\theta} + G(\theta, \dot{\theta})\dot{\theta}$$" style="edgeLabel;html=1;align=center;verticalAlign=middle;resizable=0;points=[];" parent="jYTH6Jz3JsOvPJAKBcka-66" vertex="1" connectable="0">
          <mxGeometry x="0.0857" y="2" relative="1" as="geometry">
            <mxPoint as="offset" />
          </mxGeometry>
        </mxCell>
        <mxCell id="jYTH6Jz3JsOvPJAKBcka-63" value="Lib Franka Robot model" style="rounded=0;whiteSpace=wrap;html=1;" parent="1" vertex="1">
          <mxGeometry x="120" y="535" width="120" height="60" as="geometry" />
        </mxCell>
        <mxCell id="K6AiGifMPzE6-kjP8r4b-1" value="&lt;div style=&quot;line-height: 130%;&quot;&gt;\(\Theta = \theta/\dot{\theta}\)&lt;br&gt;\(M_{virt}\) = Virtual Mass (6x6)&lt;br&gt;\(q_{des}\) = set point&lt;br&gt;\(B\) = Damping Matrix (6x6)&lt;br&gt;\(K\) Stiffness Matrix (6x6)&lt;br&gt;\(a\) = torque ramp constant&lt;br&gt;&lt;/div&gt;" style="rounded=0;whiteSpace=wrap;html=1;" vertex="1" parent="1">
          <mxGeometry x="680" y="20" width="150" height="150" as="geometry" />
        </mxCell>
        <mxCell id="K6AiGifMPzE6-kjP8r4b-9" value="" style="endArrow=classic;html=1;rounded=0;entryX=0.5;entryY=0;entryDx=0;entryDy=0;" edge="1" parent="1" target="jYTH6Jz3JsOvPJAKBcka-19">
          <mxGeometry width="50" height="50" relative="1" as="geometry">
            <mxPoint x="285" y="100" as="sourcePoint" />
            <mxPoint x="450" y="350" as="targetPoint" />
          </mxGeometry>
        </mxCell>
        <mxCell id="K6AiGifMPzE6-kjP8r4b-11" value="" style="endArrow=classic;html=1;rounded=0;entryX=0.5;entryY=0;entryDx=0;entryDy=0;" edge="1" parent="1" target="jYTH6Jz3JsOvPJAKBcka-63">
          <mxGeometry width="50" height="50" relative="1" as="geometry">
            <mxPoint x="180" y="410" as="sourcePoint" />
            <mxPoint x="450" y="350" as="targetPoint" />
          </mxGeometry>
        </mxCell>
        <mxCell id="K6AiGifMPzE6-kjP8r4b-17" value="" style="endArrow=classic;html=1;rounded=0;entryX=0;entryY=0.5;entryDx=0;entryDy=0;exitX=1;exitY=0.5;exitDx=0;exitDy=0;" edge="1" parent="1" source="jYTH6Jz3JsOvPJAKBcka-19" target="jYTH6Jz3JsOvPJAKBcka-18">
          <mxGeometry width="50" height="50" relative="1" as="geometry">
            <mxPoint x="400" y="430" as="sourcePoint" />
            <mxPoint x="450" y="380" as="targetPoint" />
          </mxGeometry>
        </mxCell>
        <mxCell id="K6AiGifMPzE6-kjP8r4b-18" value="\(\dot{q}\)" style="edgeLabel;html=1;align=center;verticalAlign=middle;resizable=0;points=[];" vertex="1" connectable="0" parent="K6AiGifMPzE6-kjP8r4b-17">
          <mxGeometry x="-0.3333" y="-3" relative="1" as="geometry">
            <mxPoint as="offset" />
          </mxGeometry>
        </mxCell>
      </root>
    </mxGraphModel>
  </diagram>
</mxfile>
